<svg width="821" height="272" viewBox="0 0 821 272" fill="none" xmlns="http://www.w3.org/2000/svg">
<path d="M12.2043 -13.0594C21.008 -21.8632 35.2817 -21.8632 44.0854 -13.0594V-13.0594C53.4679 -3.67697 53.4679 11.535 44.0854 20.9174L-12.071 77.0738L-45 44.1448L12.2043 -13.0594Z" fill="#F4F4F4"/>
<path d="M51.3587 209.715L52.6933 211.05C61.9936 220.35 61.9936 235.429 52.6933 244.729L-1.65405 299.077L-35.5858 265.145L19.8438 209.715C28.5464 201.013 42.6561 201.013 51.3587 209.715Z" stroke="#F4F4F4" stroke-width="2"/>
<path d="M15.4014 84.9269C16.1895 84.1529 16.2009 82.8866 15.4269 82.0986C14.6529 81.3105 13.3866 81.2991 12.5986 82.0731L15.4014 84.9269ZM12.5986 82.0731C7.13124 87.4428 0.131244 94.3178 -5.50192 99.8504C-8.3185 102.617 -10.7934 105.047 -12.5641 106.786C-13.4495 107.656 -14.1588 108.353 -14.6468 108.832C-14.8908 109.072 -15.0794 109.257 -15.2071 109.382C-15.2709 109.445 -15.3195 109.493 -15.3521 109.525C-15.3684 109.541 -15.3808 109.553 -15.389 109.561C-15.3932 109.565 -15.3962 109.568 -15.3983 109.57C-15.3992 109.571 -15.4002 109.572 -15.4006 109.572C-15.4009 109.573 -15.4011 109.573 -15.4012 109.573C-15.4014 109.573 -15.4014 109.573 -14 111C-12.5986 112.427 -12.5985 112.427 -12.5984 112.427C-12.5983 112.427 -12.5981 112.426 -12.5978 112.426C-12.5972 112.426 -12.5966 112.425 -12.5955 112.424C-12.5934 112.422 -12.5903 112.419 -12.5862 112.415C-12.5779 112.407 -12.5656 112.394 -12.5493 112.378C-12.5167 112.346 -12.4681 112.299 -12.4043 112.236C-12.2766 112.111 -12.0879 111.925 -11.844 111.686C-11.356 111.206 -10.6466 110.51 -9.76127 109.64C-7.99054 107.901 -5.51567 105.47 -2.69909 102.704C2.93408 97.1716 9.93408 90.2966 15.4014 84.9269L12.5986 82.0731Z" fill="#F4F4F4"/>
<path d="M755.586 53.5858C754.805 54.3668 754.805 55.6332 755.586 56.4142C756.367 57.1953 757.633 57.1953 758.414 56.4142L755.586 53.5858ZM809.586 -0.414214C809.533 -0.361479 809.48 -0.308745 809.428 -0.256011C809.375 -0.203276 809.322 -0.150542 809.269 -0.0978089C809.217 -0.0450754 809.164 0.00765782 809.111 0.0603904C809.058 0.113123 809.006 0.165855 808.953 0.218586C808.9 0.271317 808.848 0.324048 808.795 0.376777C808.742 0.429506 808.689 0.482235 808.637 0.534962C808.584 0.587689 808.531 0.640415 808.478 0.693139C808.426 0.745864 808.373 0.798587 808.32 0.851308C808.268 0.90403 808.215 0.95675 808.162 1.00947C808.109 1.06219 808.057 1.1149 808.004 1.16762C807.951 1.22033 807.899 1.27304 807.846 1.32575C807.793 1.37846 807.74 1.43117 807.688 1.48388C807.635 1.53658 807.582 1.58928 807.53 1.64199C807.477 1.69469 807.424 1.74738 807.371 1.80008C807.319 1.85277 807.266 1.90547 807.213 1.95815C807.161 2.01084 807.108 2.06353 807.055 2.11621C807.003 2.1689 806.95 2.22157 806.897 2.27425C806.845 2.32693 806.792 2.3796 806.739 2.43227C806.687 2.48494 806.634 2.5376 806.581 2.59027C806.529 2.64293 806.476 2.69559 806.423 2.74824C806.371 2.80089 806.318 2.85354 806.265 2.90619C806.213 2.95883 806.16 3.01148 806.107 3.06411C806.055 3.11675 806.002 3.16938 805.95 3.22201C805.897 3.27464 805.844 3.32726 805.792 3.37988C805.739 3.4325 805.686 3.48511 805.634 3.53772C805.581 3.59033 805.529 3.64293 805.476 3.69553C805.423 3.74813 805.371 3.80072 805.318 3.85331C805.266 3.9059 805.213 3.95848 805.161 4.01106C805.108 4.06363 805.055 4.11621 805.003 4.16877C804.95 4.22134 804.898 4.2739 804.845 4.32645C804.793 4.379 804.74 4.43155 804.687 4.48409C804.635 4.53663 804.582 4.58917 804.53 4.64169C804.477 4.69422 804.425 4.74674 804.372 4.79926C804.32 4.85178 804.267 4.90428 804.215 4.95679C804.162 5.00929 804.11 5.06178 804.057 5.11427C804.005 5.16676 803.952 5.21924 803.9 5.27171C803.847 5.32419 803.795 5.37665 803.742 5.42911C803.69 5.48157 803.638 5.53402 803.585 5.58647C803.533 5.63891 803.48 5.69135 803.428 5.74378C803.375 5.7962 803.323 5.84862 803.271 5.90104C803.218 5.95345 803.166 6.00585 803.113 6.05825C803.061 6.11065 803.009 6.16303 802.956 6.21541C802.904 6.26779 802.851 6.32016 802.799 6.37253C802.747 6.42489 802.694 6.47724 802.642 6.52959C802.59 6.58193 802.537 6.63427 802.485 6.6866C802.433 6.73892 802.38 6.79124 802.328 6.84355C802.276 6.89586 802.223 6.94816 802.171 7.00045C802.119 7.05274 802.067 7.10502 802.014 7.15729C801.962 7.20956 801.91 7.26182 801.858 7.31407C801.805 7.36632 801.753 7.41857 801.701 7.4708C801.649 7.52303 801.596 7.57525 801.544 7.62746C801.492 7.67967 801.44 7.73187 801.388 7.78406C801.335 7.83625 801.283 7.88843 801.231 7.9406C801.179 7.99277 801.127 8.04493 801.074 8.09708C801.022 8.14923 800.97 8.20136 800.918 8.25349C800.866 8.30562 800.814 8.35773 800.762 8.40983C800.71 8.46194 800.658 8.51403 800.605 8.56611C800.553 8.61819 800.501 8.67026 800.449 8.72232C800.397 8.77438 800.345 8.82642 800.293 8.87846C800.241 8.93049 800.189 8.98251 800.137 9.03452C800.085 9.08653 800.033 9.13853 799.981 9.19052C799.929 9.2425 799.877 9.29448 799.825 9.34644C799.773 9.3984 799.721 9.45035 799.669 9.50228C799.617 9.55422 799.565 9.60614 799.514 9.65805C799.462 9.70996 799.41 9.76186 799.358 9.81374C799.306 9.86563 799.254 9.9175 799.202 9.96936C799.15 10.0212 799.099 10.0731 799.047 10.1249C798.995 10.1767 798.943 10.2285 798.891 10.2803C798.839 10.3322 798.788 10.3839 798.736 10.4357C798.684 10.4875 798.632 10.5393 798.581 10.591C798.529 10.6428 798.477 10.6945 798.425 10.7462C798.374 10.7979 798.322 10.8496 798.27 10.9013C798.219 10.953 798.167 11.0047 798.115 11.0564C798.064 11.108 798.012 11.1597 797.96 11.2113C797.909 11.2629 797.857 11.3146 797.805 11.3662C797.754 11.4178 797.702 11.4693 797.651 11.5209C797.599 11.5725 797.548 11.624 797.496 11.6756C797.444 11.7271 797.393 11.7787 797.341 11.8302C797.29 11.8817 797.238 11.9332 797.187 11.9847C797.135 12.0361 797.084 12.0876 797.033 12.139C796.981 12.1905 796.93 12.2419 796.878 12.2933C796.827 12.3447 796.775 12.3961 796.724 12.4475C796.673 12.4989 796.621 12.5503 796.57 12.6016C796.519 12.653 796.467 12.7043 796.416 12.7556C796.365 12.8069 796.313 12.8582 796.262 12.9095C796.211 12.9608 796.16 13.0121 796.108 13.0633C796.057 13.1145 796.006 13.1658 795.955 13.217C795.903 13.2682 795.852 13.3194 795.801 13.3706C795.75 13.4217 795.699 13.4729 795.648 13.524C795.596 13.5752 795.545 13.6263 795.494 13.6774C795.443 13.7285 795.392 13.7796 795.341 13.8307C795.29 13.8817 795.239 13.9328 795.188 13.9838C795.137 14.0349 795.086 14.0859 795.035 14.1369C794.984 14.1879 794.933 14.2388 794.882 14.2898C794.831 14.3408 794.78 14.3917 794.729 14.4426C794.678 14.4935 794.627 14.5444 794.576 14.5953C794.525 14.6462 794.475 14.697 794.424 14.7479C794.373 14.7987 794.322 14.8496 794.271 14.9004C794.22 14.9512 794.17 15.0019 794.119 15.0527C794.068 15.1035 794.017 15.1542 793.967 15.2049C793.916 15.2557 793.865 15.3064 793.815 15.357C793.764 15.4077 793.713 15.4584 793.663 15.509C793.612 15.5597 793.561 15.6103 793.511 15.6609C793.46 15.7115 793.41 15.7621 793.359 15.8126C793.308 15.8632 793.258 15.9137 793.207 15.9642C793.157 16.0148 793.106 16.0653 793.056 16.1157C793.005 16.1662 792.955 16.2167 792.904 16.2671C792.854 16.3175 792.804 16.3679 792.753 16.4183C792.703 16.4687 792.653 16.5191 792.602 16.5694C792.552 16.6198 792.501 16.6701 792.451 16.7204C792.401 16.7707 792.351 16.821 792.3 16.8712C792.25 16.9215 792.2 16.9717 792.15 17.0219C792.099 17.0721 792.049 17.1223 791.999 17.1725C791.949 17.2226 791.899 17.2728 791.849 17.3229C791.799 17.373 791.748 17.4231 791.698 17.4732C791.648 17.5233 791.598 17.5733 791.548 17.6234C791.498 17.6734 791.448 17.7234 791.398 17.7734C791.348 17.8233 791.298 17.8733 791.248 17.9232C791.198 17.9732 791.148 18.0231 791.099 18.073C791.049 18.1228 790.999 18.1727 790.949 18.2225C790.899 18.2724 790.849 18.3222 790.8 18.372C790.75 18.4218 790.7 18.4715 790.65 18.5213C790.601 18.571 790.551 18.6207 790.501 18.6704C790.451 18.7201 790.402 18.7698 790.352 18.8194C790.303 18.8691 790.253 18.9187 790.203 18.9683C790.154 19.0179 790.104 19.0674 790.055 19.117C790.005 19.1665 789.956 19.216 789.906 19.2655C789.857 19.315 789.807 19.3645 789.758 19.4139C789.708 19.4633 789.659 19.5128 789.609 19.5621C789.56 19.6115 789.511 19.6609 789.461 19.7102C789.412 19.7596 789.363 19.8089 789.313 19.8582C789.264 19.9074 789.215 19.9567 789.166 20.0059C789.116 20.0552 789.067 20.1044 789.018 20.1535C788.969 20.2027 788.92 20.2519 788.871 20.301C788.821 20.3501 788.772 20.3992 788.723 20.4483C788.674 20.4973 788.625 20.5464 788.576 20.5954C788.527 20.6444 788.478 20.6934 788.429 20.7423C788.38 20.7913 788.331 20.8402 788.282 20.8891C788.234 20.938 788.185 20.9869 788.136 21.0358C788.087 21.0846 788.038 21.1334 787.989 21.1822C787.941 21.231 787.892 21.2798 787.843 21.3285C787.794 21.3773 787.746 21.426 787.697 21.4746C787.648 21.5233 787.6 21.572 787.551 21.6206C787.502 21.6692 787.454 21.7178 787.405 21.7664C787.357 21.8149 787.308 21.8635 787.26 21.912C787.211 21.9605 787.163 22.0089 787.114 22.0574C787.066 22.1058 787.017 22.1543 786.969 22.2026C786.921 22.251 786.872 22.2994 786.824 22.3477C786.776 22.396 786.727 22.4443 786.679 22.4926C786.631 22.5409 786.582 22.5891 786.534 22.6373C786.486 22.6855 786.438 22.7337 786.39 22.7819C786.342 22.83 786.293 22.8781 786.245 22.9262C786.197 22.9743 786.149 23.0223 786.101 23.0704C786.053 23.1184 786.005 23.1664 785.957 23.2144C785.909 23.2623 785.861 23.3103 785.813 23.3582C785.766 23.4061 785.718 23.4539 785.67 23.5018C785.622 23.5496 785.574 23.5974 785.526 23.6452C785.479 23.693 785.431 23.7407 785.383 23.7884C785.335 23.8361 785.288 23.8838 785.24 23.9315C785.192 23.9791 785.145 24.0267 785.097 24.0743C785.05 24.1219 785.002 24.1694 784.955 24.217C784.907 24.2645 784.86 24.312 784.812 24.3594C784.765 24.4069 784.717 24.4543 784.67 24.5017C784.622 24.5491 784.575 24.5964 784.528 24.6438C784.48 24.6911 784.433 24.7384 784.386 24.7856C784.339 24.8329 784.291 24.8801 784.244 24.9273C784.197 24.9745 784.15 25.0217 784.103 25.0688C784.056 25.1159 784.009 25.163 783.962 25.2101C783.914 25.2571 783.867 25.3041 783.82 25.3511C783.773 25.3981 783.727 25.4451 783.68 25.492C783.633 25.5389 783.586 25.5858 783.539 25.6326C783.492 25.6795 783.445 25.7263 783.398 25.7731C783.352 25.8199 783.305 25.8666 783.258 25.9133C783.212 25.9601 783.165 26.0067 783.118 26.0534C783.072 26.1 783.025 26.1466 782.978 26.1932C782.932 26.2398 782.885 26.2863 782.839 26.3328C782.792 26.3793 782.746 26.4258 782.699 26.4722C782.653 26.5187 782.607 26.5651 782.56 26.6114C782.514 26.6578 782.467 26.7041 782.421 26.7504C782.375 26.7967 782.329 26.8429 782.282 26.8892C782.236 26.9354 782.19 26.9815 782.144 27.0277C782.098 27.0738 782.052 27.1199 782.006 27.166C781.959 27.2121 781.913 27.2581 781.867 27.3041C781.821 27.3501 781.775 27.3961 781.73 27.442C781.684 27.4879 781.638 27.5338 781.592 27.5797C781.546 27.6255 781.5 27.6713 781.454 27.7171C781.409 27.7629 781.363 27.8086 781.317 27.8543C781.272 27.9 781.226 27.9457 781.18 27.9913C781.135 28.0369 781.089 28.0825 781.044 28.1281C780.998 28.1736 780.952 28.2191 780.907 28.2646C780.862 28.3101 780.816 28.3555 780.771 28.4009C780.725 28.4463 780.68 28.4916 780.635 28.537C780.589 28.5823 780.544 28.6276 780.499 28.6728C780.454 28.718 780.408 28.7632 780.363 28.8084C780.318 28.8536 780.273 28.8987 780.228 28.9438C780.183 28.9889 780.138 29.0339 780.093 29.0789C780.048 29.1239 780.003 29.1689 779.958 29.2138C779.913 29.2587 779.868 29.3036 779.823 29.3485C779.778 29.3933 779.733 29.4381 779.689 29.4829C779.644 29.5277 779.599 29.5724 779.554 29.6171C779.51 29.6618 779.465 29.7064 779.421 29.751C779.376 29.7956 779.331 29.8402 779.287 29.8847C779.242 29.9293 779.198 29.9737 779.153 30.0182C779.109 30.0626 779.065 30.107 779.02 30.1514C778.976 30.1958 778.931 30.2401 778.887 30.2844C778.843 30.3286 778.799 30.3729 778.754 30.4171C778.71 30.4613 778.666 30.5054 778.622 30.5495C778.578 30.5937 778.534 30.6377 778.49 30.6818C778.446 30.7258 778.402 30.7698 778.358 30.8137C778.314 30.8577 778.27 30.9016 778.226 30.9454C778.182 30.9893 778.138 31.0331 778.095 31.0769C778.051 31.1207 778.007 31.1644 777.963 31.2081C777.92 31.2518 777.876 31.2955 777.833 31.3391C777.789 31.3827 777.745 31.4262 777.702 31.4698C777.658 31.5133 777.615 31.5568 777.571 31.6002C777.528 31.6436 777.485 31.687 777.441 31.7304C777.398 31.7737 777.355 31.817 777.311 31.8603C777.268 31.9036 777.225 31.9468 777.182 31.9899C777.138 32.0331 777.095 32.0762 777.052 32.1193C777.009 32.1624 776.966 32.2055 776.923 32.2485C776.88 32.2915 776.837 32.3344 776.794 32.3773C776.751 32.4202 776.708 32.4631 776.666 32.5059C776.623 32.5487 776.58 32.5915 776.537 32.6342C776.495 32.677 776.452 32.7197 776.409 32.7623C776.367 32.8049 776.324 32.8475 776.281 32.8901C776.239 32.9326 776.196 32.9751 776.154 33.0176C776.112 33.0601 776.069 33.1025 776.027 33.1448C775.984 33.1872 775.942 33.2295 775.9 33.2718C775.857 33.3141 775.815 33.3563 775.773 33.3985C775.731 33.4407 775.689 33.4828 775.647 33.5249C775.605 33.567 775.563 33.6091 775.521 33.6511C775.479 33.6931 775.437 33.735 775.395 33.7769C775.353 33.8188 775.311 33.8607 775.269 33.9025C775.227 33.9443 775.185 33.9861 775.144 34.0278C775.102 34.0695 775.06 34.1112 775.019 34.1528C774.977 34.1944 774.936 34.236 774.894 34.2776C774.852 34.3191 774.811 34.3606 774.77 34.402C774.728 34.4434 774.687 34.4848 774.645 34.5262C774.604 34.5675 774.563 34.6088 774.522 34.65C774.48 34.6913 774.439 34.7325 774.398 34.7736C774.357 34.8148 774.316 34.8559 774.275 34.8969C774.234 34.938 774.193 34.979 774.152 35.0199C774.111 35.0609 774.07 35.1018 774.029 35.1426C773.988 35.1835 773.947 35.2243 773.907 35.2651C773.866 35.3058 773.825 35.3465 773.784 35.3872C773.744 35.4278 773.703 35.4685 773.663 35.509C773.622 35.5496 773.581 35.5901 773.541 35.6305C773.501 35.671 773.46 35.7114 773.42 35.7518C773.379 35.7921 773.339 35.8325 773.299 35.8727C773.259 35.913 773.218 35.9532 773.178 35.9934C773.138 36.0335 773.098 36.0736 773.058 36.1137C773.018 36.1537 772.978 36.1938 772.938 36.2337C772.898 36.2737 772.858 36.3136 772.818 36.3534C772.778 36.3933 772.738 36.4331 772.699 36.4729C772.659 36.5126 772.619 36.5523 772.58 36.592C772.54 36.6316 772.5 36.6712 772.461 36.7108C772.421 36.7503 772.382 36.7898 772.342 36.8293C772.303 36.8687 772.263 36.9081 772.224 36.9475C772.185 36.9868 772.145 37.0261 772.106 37.0653C772.067 37.1046 772.028 37.1438 771.989 37.1829C771.95 37.222 771.91 37.2611 771.871 37.3002C771.832 37.3392 771.793 37.3782 771.754 37.4171C771.716 37.456 771.677 37.4949 771.638 37.5337C771.599 37.5725 771.56 37.6113 771.522 37.65C771.483 37.6887 771.444 37.7274 771.406 37.766C771.367 37.8046 771.328 37.8432 771.29 37.8817C771.251 37.9202 771.213 37.9586 771.175 37.997C771.136 38.0354 771.098 38.0737 771.06 38.112C771.021 38.1503 770.983 38.1885 770.945 38.2267C770.907 38.2649 770.869 38.303 770.83 38.3411C770.792 38.3792 770.754 38.4172 770.716 38.4551C770.678 38.4931 770.641 38.531 770.603 38.5688C770.565 38.6067 770.527 38.6445 770.489 38.6822C770.452 38.72 770.414 38.7577 770.376 38.7953C770.339 38.8329 770.301 38.8705 770.264 38.908C770.226 38.9455 770.189 38.983 770.151 39.0204C770.114 39.0578 770.076 39.0952 770.039 39.1325C770.002 39.1698 769.965 39.207 769.927 39.2442C769.89 39.2814 769.853 39.3185 769.816 39.3556C769.779 39.3927 769.742 39.4297 769.705 39.4667C769.668 39.5036 769.631 39.5405 769.594 39.5774C769.557 39.6142 769.521 39.651 769.484 39.6878C769.447 39.7245 769.41 39.7612 769.374 39.7978C769.337 39.8344 769.301 39.871 769.264 39.9075C769.228 39.944 769.191 39.9805 769.155 40.0169C769.118 40.0533 769.082 40.0896 769.046 40.1259C769.009 40.1622 768.973 40.1984 768.937 40.2345C768.901 40.2707 768.865 40.3068 768.829 40.3429C768.793 40.3789 768.757 40.4149 768.721 40.4508C768.685 40.4868 768.649 40.5226 768.613 40.5585C768.577 40.5943 768.542 40.63 768.506 40.6657C768.47 40.7014 768.434 40.7371 768.399 40.7727C768.363 40.8082 768.328 40.8438 768.292 40.8792C768.257 40.9147 768.221 40.9501 768.186 40.9854C768.151 41.0208 768.115 41.0561 768.08 41.0913C768.045 41.1265 768.01 41.1617 767.975 41.1968C767.94 41.2319 767.905 41.267 767.87 41.302C767.835 41.337 767.8 41.3719 767.765 41.4068C767.73 41.4416 767.695 41.4764 767.66 41.5112C767.626 41.5459 767.591 41.5806 767.556 41.6153C767.522 41.6499 767.487 41.6844 767.453 41.719C767.418 41.7535 767.384 41.7879 767.349 41.8223C767.315 41.8567 767.281 41.891 767.246 41.9253C767.212 41.9595 767.178 41.9938 767.144 42.0279C767.11 42.062 767.075 42.0961 767.041 42.1301C767.007 42.1642 766.973 42.1981 766.94 42.232C766.906 42.2659 766.872 42.2998 766.838 42.3335C766.804 42.3673 766.771 42.401 766.737 42.4347C766.703 42.4683 766.67 42.5019 766.636 42.5354C766.603 42.569 766.569 42.6024 766.536 42.6358C766.502 42.6692 766.469 42.7026 766.436 42.7358C766.402 42.7691 766.369 42.8023 766.336 42.8355C766.303 42.8686 766.27 42.9017 766.237 42.9348C766.204 42.9678 766.171 43.0008 766.138 43.0337C766.105 43.0666 766.072 43.0994 766.039 43.1322C766.007 43.1649 765.974 43.1976 765.941 43.2303C765.909 43.2629 765.876 43.2955 765.844 43.328C765.811 43.3606 765.779 43.393 765.746 43.4254C765.714 43.4578 765.681 43.4901 765.649 43.5224C765.617 43.5547 765.585 43.5869 765.553 43.619C765.52 43.6511 765.488 43.6832 765.456 43.7152C765.424 43.7472 765.392 43.7791 765.361 43.811C765.329 43.8429 765.297 43.8747 765.265 43.9065C765.233 43.9382 765.202 43.9699 765.17 44.0015C765.138 44.0331 765.107 44.0647 765.075 44.0962C765.044 44.1276 765.013 44.1591 764.981 44.1904C764.95 44.2218 764.919 44.2531 764.887 44.2843C764.856 44.3155 764.825 44.3467 764.794 44.3778C764.763 44.4089 764.732 44.4399 764.701 44.4708C764.67 44.5018 764.639 44.5327 764.608 44.5635C764.577 44.5944 764.546 44.6251 764.516 44.6558C764.485 44.6865 764.454 44.7171 764.424 44.7477C764.393 44.7783 764.363 44.8087 764.332 44.8392C764.302 44.8696 764.272 44.9 764.241 44.9303C764.211 44.9605 764.181 44.9908 764.151 45.0209C764.12 45.0511 764.09 45.0812 764.06 45.1112C764.03 45.1412 764 45.1712 763.97 45.2011C763.941 45.231 763.911 45.2608 763.881 45.2905C763.851 45.3203 763.822 45.35 763.792 45.3796C763.762 45.4092 763.733 45.4388 763.703 45.4682C763.674 45.4977 763.644 45.5271 763.615 45.5565C763.586 45.5858 763.556 45.6151 763.527 45.6443C763.498 45.6735 763.469 45.7026 763.44 45.7317C763.411 45.7608 763.382 45.7898 763.353 45.8187C763.324 45.8476 763.295 45.8765 763.266 45.9053C763.238 45.9341 763.209 45.9628 763.18 45.9914C763.151 46.0201 763.123 46.0487 763.094 46.0772C763.066 46.1057 763.037 46.1341 763.009 46.1625C762.981 46.1909 762.952 46.2192 762.924 46.2474C762.896 46.2756 762.868 46.3038 762.84 46.3319C762.812 46.36 762.784 46.388 762.756 46.416C762.728 46.4439 762.7 46.4718 762.672 46.4996C762.644 46.5274 762.616 46.5552 762.589 46.5828C762.561 46.6105 762.533 46.6381 762.506 46.6656C762.478 46.6931 762.451 46.7206 762.424 46.748C762.396 46.7754 762.369 46.8027 762.342 46.8299C762.314 46.8571 762.287 46.8843 762.26 46.9114C762.233 46.9385 762.206 46.9655 762.179 46.9925C762.152 47.0194 762.125 47.0463 762.098 47.0731C762.072 47.0999 762.045 47.1267 762.018 47.1533C761.992 47.18 761.965 47.2066 761.938 47.2331C761.912 47.2596 761.886 47.2861 761.859 47.3124C761.833 47.3388 761.806 47.3651 761.78 47.3913C761.754 47.4176 761.728 47.4437 761.702 47.4698C761.676 47.4959 761.65 47.5219 761.624 47.5478C761.598 47.5738 761.572 47.5996 761.546 47.6254C761.52 47.6512 761.495 47.6769 761.469 47.7025C761.443 47.7282 761.418 47.7537 761.392 47.7792C761.367 47.8047 761.341 47.8301 761.316 47.8555C761.291 47.8808 761.265 47.9061 761.24 47.9313C761.215 47.9565 761.19 47.9816 761.165 48.0067C761.14 48.0317 761.115 48.0567 761.09 48.0816C761.065 48.1065 761.04 48.1313 761.016 48.156C760.991 48.1808 760.966 48.2055 760.942 48.23C760.917 48.2546 760.892 48.2792 760.868 48.3036C760.844 48.3281 760.819 48.3524 760.795 48.3767C760.771 48.401 760.746 48.4252 760.722 48.4494C760.698 48.4735 760.674 48.4976 760.65 48.5216C760.626 48.5456 760.602 48.5695 760.578 48.5933C760.554 48.6172 760.531 48.6409 760.507 48.6646C760.483 48.6883 760.46 48.7119 760.436 48.7354C760.413 48.759 760.389 48.7824 760.366 48.8058C760.342 48.8292 760.319 48.8525 760.296 48.8757C760.273 48.8989 760.249 48.9221 760.226 48.9452C760.203 48.9682 760.18 48.9912 760.157 49.0141C760.135 49.0371 760.112 49.0599 760.089 49.0827C760.066 49.1054 760.043 49.1281 760.021 49.1507C759.998 49.1733 759.976 49.1958 759.953 49.2183C759.931 49.2407 759.908 49.2631 759.886 49.2854C759.864 49.3077 759.842 49.3299 759.82 49.3521C759.797 49.3742 759.775 49.3963 759.753 49.4182C759.731 49.4402 759.709 49.4621 759.688 49.4839C759.666 49.5058 759.644 49.5275 759.622 49.5492C759.601 49.5708 759.579 49.5924 759.558 49.6139C759.536 49.6354 759.515 49.6569 759.493 49.6782C759.472 49.6996 759.451 49.7208 759.43 49.742C759.408 49.7632 759.387 49.7843 759.366 49.8053C759.345 49.8264 759.324 49.8473 759.303 49.8682C759.283 49.8891 759.262 49.9098 759.241 49.9305C759.22 49.9513 759.2 49.9719 759.179 49.9924C759.159 50.013 759.138 50.0334 759.118 50.0538C759.097 50.0742 759.077 50.0945 759.057 50.1148C759.037 50.135 759.016 50.1551 758.996 50.1752C758.976 50.1952 758.956 50.2152 758.936 50.2351C758.917 50.255 758.897 50.2749 758.877 50.2946C758.857 50.3143 758.838 50.334 758.818 50.3536C758.798 50.3731 758.779 50.3926 758.76 50.412C758.74 50.4315 758.721 50.4508 758.702 50.47C758.682 50.4893 758.663 50.5084 758.644 50.5275C758.625 50.5466 758.606 50.5656 758.587 50.5845C758.568 50.6034 758.549 50.6223 758.531 50.641C758.512 50.6598 758.493 50.6785 758.475 50.697C758.456 50.7156 758.437 50.7341 758.419 50.7526C758.401 50.771 758.382 50.7893 758.364 50.8076C758.346 50.8258 758.328 50.844 758.309 50.8621C758.291 50.8802 758.273 50.8982 758.255 50.9161C758.238 50.934 758.22 50.9519 758.202 50.9696C758.184 50.9874 758.167 51.005 758.149 51.0226C758.131 51.0402 758.114 51.0577 758.096 51.0751C758.079 51.0926 758.062 51.1099 758.044 51.1271C758.027 51.1444 758.01 51.1615 757.993 51.1786C757.976 51.1957 757.959 51.2127 757.942 51.2296C757.925 51.2465 757.908 51.2633 757.891 51.2801C757.875 51.2968 757.858 51.3135 757.842 51.3301C757.825 51.3466 757.808 51.3631 757.792 51.3795C757.776 51.3959 757.759 51.4122 757.743 51.4284C757.727 51.4447 757.711 51.4608 757.695 51.4769C757.679 51.4929 757.663 51.5089 757.647 51.5248C757.631 51.5407 757.615 51.5565 757.599 51.5722C757.584 51.5879 757.568 51.6035 757.553 51.6191C757.537 51.6346 757.522 51.65 757.506 51.6654C757.491 51.6808 757.476 51.6961 757.46 51.7112C757.445 51.7264 757.43 51.7415 757.415 51.7566C757.4 51.7716 757.385 51.7865 757.37 51.8014C757.355 51.8162 757.341 51.831 757.326 51.8456C757.311 51.8603 757.297 51.8749 757.282 51.8894C757.268 51.9039 757.253 51.9183 757.239 51.9326C757.225 51.9469 757.21 51.9611 757.196 51.9753C757.182 51.9894 757.168 52.0035 757.154 52.0174C757.14 52.0314 757.126 52.0453 757.113 52.0591C757.099 52.0729 757.085 52.0866 757.071 52.1002C757.058 52.1138 757.044 52.1273 757.031 52.1407C757.017 52.1542 757.004 52.1675 756.991 52.1808C756.978 52.194 756.964 52.2072 756.951 52.2203C756.938 52.2333 756.925 52.2463 756.912 52.2592C756.899 52.2721 756.887 52.2849 756.874 52.2977C756.861 52.3104 756.849 52.323 756.836 52.3355C756.823 52.3481 756.811 52.3605 756.799 52.3729C756.786 52.3853 756.774 52.3975 756.762 52.4097C756.75 52.4219 756.738 52.434 756.726 52.446C756.714 52.458 756.702 52.4699 756.69 52.4817C756.678 52.4935 756.666 52.5052 756.655 52.5169C756.643 52.5285 756.632 52.5401 756.62 52.5515C756.609 52.563 756.597 52.5743 756.586 52.5856C756.575 52.5969 756.564 52.608 756.552 52.6191C756.541 52.6302 756.53 52.6412 756.519 52.6521C756.509 52.663 756.498 52.6738 756.487 52.6846C756.476 52.6953 756.466 52.7059 756.455 52.7164C756.445 52.727 756.434 52.7374 756.424 52.7478C756.413 52.7581 756.403 52.7684 756.393 52.7786C756.383 52.7887 756.373 52.7988 756.363 52.8088C756.353 52.8188 756.343 52.8287 756.333 52.8385C756.323 52.8483 756.314 52.858 756.304 52.8676C756.294 52.8772 756.285 52.8867 756.275 52.8961C756.266 52.9055 756.257 52.9149 756.247 52.9241C756.238 52.9333 756.229 52.9425 756.22 52.9515C756.211 52.9606 756.202 52.9695 756.193 52.9784C756.184 52.9873 756.176 52.996 756.167 53.0047C756.158 53.0134 756.15 53.022 756.141 53.0305C756.133 53.0389 756.124 53.0473 756.116 53.0556C756.108 53.0639 756.099 53.0721 756.091 53.0802C756.083 53.0883 756.075 53.0964 756.067 53.1043C756.059 53.1122 756.052 53.12 756.044 53.1277C756.036 53.1355 756.028 53.1431 756.021 53.1506C756.013 53.1582 756.006 53.1656 755.999 53.173C755.991 53.1803 755.984 53.1876 755.977 53.1947C755.97 53.2019 755.963 53.2089 755.956 53.2159C755.949 53.2229 755.942 53.2297 755.935 53.2365C755.928 53.2433 755.922 53.2499 755.915 53.2565C755.908 53.2631 755.902 53.2696 755.896 53.276C755.889 53.2824 755.883 53.2886 755.877 53.2948C755.871 53.301 755.864 53.3071 755.858 53.3131C755.852 53.3191 755.847 53.325 755.841 53.3308C755.835 53.3366 755.829 53.3423 755.824 53.348C755.818 53.3536 755.812 53.3591 755.807 53.3645C755.802 53.3699 755.796 53.3752 755.791 53.3804C755.786 53.3857 755.781 53.3908 755.776 53.3958C755.771 53.4008 755.766 53.4058 755.761 53.4106C755.756 53.4154 755.751 53.4201 755.747 53.4248C755.742 53.4294 755.738 53.4339 755.733 53.4384C755.729 53.4428 755.724 53.4471 755.72 53.4514C755.716 53.4556 755.712 53.4598 755.708 53.4638C755.704 53.4678 755.7 53.4718 755.696 53.4756C755.692 53.4795 755.688 53.4832 755.685 53.4868C755.681 53.4905 755.678 53.494 755.674 53.4975C755.671 53.5009 755.667 53.5043 755.664 53.5075C755.661 53.5108 755.658 53.5139 755.655 53.5169C755.652 53.52 755.649 53.5229 755.646 53.5258C755.643 53.5286 755.64 53.5314 755.638 53.534C755.635 53.5367 755.632 53.5392 755.63 53.5416C755.627 53.5441 755.625 53.5464 755.623 53.5487C755.621 53.5509 755.619 53.553 755.616 53.5551C755.614 53.5571 755.613 53.5591 755.611 53.5609C755.609 53.5627 755.607 53.5645 755.605 53.5661C755.604 53.5677 755.602 53.5693 755.601 53.5707C755.599 53.5721 755.598 53.5735 755.597 53.5747C755.596 53.5759 755.595 53.5771 755.593 53.5781C755.592 53.5791 755.592 53.58 755.591 53.5809C755.59 53.5817 755.589 53.5824 755.589 53.583C755.588 53.5836 755.587 53.5841 755.587 53.5846C755.587 53.585 755.586 53.5853 755.586 53.5855C755.586 53.5857 755.586 53.5858 757 55C758.414 56.4142 758.414 56.4141 758.415 56.4139C758.415 56.4137 758.415 56.4134 758.415 56.413C758.416 56.4126 758.416 56.4121 758.417 56.4114C758.418 56.4108 758.418 56.4101 758.419 56.4093C758.42 56.4085 758.421 56.4075 758.422 56.4065C758.423 56.4055 758.424 56.4044 758.425 56.4031C758.427 56.4019 758.428 56.4006 758.429 56.3991C758.431 56.3977 758.432 56.3962 758.434 56.3945C758.436 56.3929 758.437 56.3912 758.439 56.3893C758.441 56.3875 758.443 56.3856 758.445 56.3835C758.447 56.3815 758.449 56.3793 758.451 56.3771C758.454 56.3749 758.456 56.3725 758.458 56.3701C758.461 56.3676 758.463 56.3651 758.466 56.3624C758.469 56.3598 758.471 56.357 758.474 56.3542C758.477 56.3514 758.48 56.3484 758.483 56.3454C758.486 56.3423 758.489 56.3392 758.492 56.3359C758.496 56.3327 758.499 56.3293 758.503 56.3259C758.506 56.3225 758.51 56.3189 758.513 56.3153C758.517 56.3116 758.521 56.3079 758.524 56.304C758.528 56.3002 758.532 56.2963 758.536 56.2922C758.54 56.2882 758.544 56.284 758.549 56.2798C758.553 56.2756 758.557 56.2712 758.562 56.2668C758.566 56.2624 758.571 56.2578 758.575 56.2532C758.58 56.2486 758.585 56.2438 758.589 56.239C758.594 56.2342 758.599 56.2293 758.604 56.2242C758.609 56.2192 758.614 56.2141 758.62 56.2089C758.625 56.2037 758.63 56.1983 758.636 56.1929C758.641 56.1875 758.646 56.182 758.652 56.1764C758.658 56.1708 758.663 56.1651 758.669 56.1593C758.675 56.1535 758.681 56.1476 758.687 56.1416C758.693 56.1356 758.699 56.1295 758.705 56.1233C758.711 56.1171 758.718 56.1108 758.724 56.1044C758.73 56.098 758.737 56.0915 758.743 56.085C758.75 56.0784 758.757 56.0717 758.763 56.0649C758.77 56.0582 758.777 56.0513 758.784 56.0443C758.791 56.0374 758.798 56.0303 758.805 56.0231C758.812 56.016 758.82 56.0087 758.827 56.0014C758.834 55.994 758.842 55.9866 758.849 55.9791C758.857 55.9715 758.865 55.9639 758.872 55.9562C758.88 55.9484 758.888 55.9406 758.896 55.9327C758.904 55.9248 758.912 55.9168 758.92 55.9087C758.928 55.9006 758.936 55.8924 758.944 55.8841C758.953 55.8758 758.961 55.8674 758.97 55.8589C758.978 55.8504 758.987 55.8418 758.995 55.8331C759.004 55.8245 759.013 55.8157 759.022 55.8068C759.03 55.798 759.039 55.789 759.048 55.78C759.058 55.7709 759.067 55.7618 759.076 55.7525C759.085 55.7433 759.094 55.734 759.104 55.7245C759.113 55.7151 759.123 55.7056 759.132 55.696C759.142 55.6864 759.152 55.6767 759.162 55.6669C759.171 55.6571 759.181 55.6472 759.191 55.6372C759.201 55.6272 759.211 55.6172 759.221 55.607C759.232 55.5968 759.242 55.5866 759.252 55.5762C759.263 55.5659 759.273 55.5554 759.284 55.5449C759.294 55.5343 759.305 55.5237 759.315 55.513C759.326 55.5023 759.337 55.4915 759.348 55.4805C759.359 55.4696 759.37 55.4586 759.381 55.4476C759.392 55.4365 759.403 55.4253 759.414 55.414C759.426 55.4027 759.437 55.3914 759.448 55.3799C759.46 55.3685 759.471 55.3569 759.483 55.3453C759.495 55.3337 759.506 55.3219 759.518 55.3101C759.53 55.2983 759.542 55.2864 759.554 55.2744C759.566 55.2624 759.578 55.2503 759.59 55.2381C759.602 55.226 759.615 55.2137 759.627 55.2013C759.639 55.189 759.652 55.1765 759.664 55.164C759.677 55.1514 759.69 55.1388 759.702 55.1261C759.715 55.1134 759.728 55.1006 759.741 55.0877C759.754 55.0748 759.767 55.0618 759.78 55.0487C759.793 55.0356 759.806 55.0225 759.819 55.0092C759.832 54.9959 759.846 54.9826 759.859 54.9692C759.873 54.9557 759.886 54.9422 759.9 54.9286C759.913 54.915 759.927 54.9013 759.941 54.8875C759.955 54.8737 759.969 54.8598 759.983 54.8459C759.997 54.8319 760.011 54.8178 760.025 54.8037C760.039 54.7896 760.053 54.7753 760.067 54.761C760.082 54.7467 760.096 54.7323 760.111 54.7178C760.125 54.7033 760.14 54.6887 760.154 54.674C760.169 54.6594 760.184 54.6446 760.199 54.6298C760.213 54.6149 760.228 54.6 760.243 54.585C760.258 54.57 760.274 54.5549 760.289 54.5397C760.304 54.5245 760.319 54.5092 760.335 54.4938C760.35 54.4785 760.365 54.463 760.381 54.4475C760.396 54.4319 760.412 54.4163 760.428 54.4006C760.444 54.3849 760.459 54.3691 760.475 54.3532C760.491 54.3373 760.507 54.3214 760.523 54.3053C760.539 54.2892 760.555 54.2731 760.572 54.2569C760.588 54.2406 760.604 54.2243 760.62 54.2079C760.637 54.1915 760.653 54.175 760.67 54.1585C760.687 54.1419 760.703 54.1253 760.72 54.1085C760.737 54.0918 760.753 54.075 760.77 54.058C760.787 54.0411 760.804 54.0241 760.821 54.0071C760.838 53.99 760.856 53.9728 760.873 53.9556C760.89 53.9383 760.907 53.921 760.925 53.9036C760.942 53.8861 760.96 53.8686 760.977 53.8511C760.995 53.8335 761.013 53.8158 761.03 53.798C761.048 53.7803 761.066 53.7625 761.084 53.7445C761.102 53.7266 761.12 53.7086 761.138 53.6905C761.156 53.6724 761.174 53.6543 761.192 53.636C761.211 53.6177 761.229 53.5994 761.247 53.581C761.266 53.5626 761.284 53.5441 761.303 53.5255C761.322 53.5069 761.34 53.4882 761.359 53.4695C761.378 53.4507 761.397 53.4319 761.415 53.413C761.434 53.394 761.453 53.375 761.472 53.356C761.492 53.3369 761.511 53.3177 761.53 53.2985C761.549 53.2792 761.569 53.2599 761.588 53.2405C761.607 53.2211 761.627 53.2016 761.646 53.182C761.666 53.1624 761.686 53.1428 761.705 53.123C761.725 53.1033 761.745 53.0835 761.765 53.0636C761.785 53.0437 761.805 53.0237 761.825 53.0036C761.845 52.9835 761.865 52.9634 761.885 52.9432C761.905 52.923 761.926 52.9026 761.946 52.8823C761.967 52.8619 761.987 52.8414 762.008 52.8209C762.028 52.8003 762.049 52.7797 762.069 52.759C762.09 52.7383 762.111 52.7175 762.132 52.6966C762.153 52.6757 762.174 52.6548 762.195 52.6338C762.216 52.6127 762.237 52.5916 762.258 52.5704C762.279 52.5492 762.3 52.528 762.322 52.5066C762.343 52.4853 762.365 52.4639 762.386 52.4424C762.408 52.4208 762.429 52.3993 762.451 52.3776C762.472 52.3559 762.494 52.3342 762.516 52.3124C762.538 52.2905 762.56 52.2686 762.582 52.2467C762.604 52.2247 762.626 52.2026 762.648 52.1805C762.67 52.1583 762.692 52.1361 762.715 52.1138C762.737 52.0915 762.759 52.0692 762.782 52.0467C762.804 52.0243 762.827 52.0017 762.849 51.9791C762.872 51.9565 762.895 51.9338 762.917 51.9111C762.94 51.8883 762.963 51.8655 762.986 51.8426C763.009 51.8197 763.032 51.7967 763.055 51.7736C763.078 51.7505 763.101 51.7274 763.124 51.7041C763.148 51.6809 763.171 51.6576 763.194 51.6342C763.218 51.6109 763.241 51.5874 763.265 51.5639C763.288 51.5403 763.312 51.5167 763.335 51.493C763.359 51.4694 763.383 51.4456 763.407 51.4218C763.431 51.3979 763.454 51.374 763.478 51.35C763.502 51.326 763.526 51.3019 763.551 51.2778C763.575 51.2537 763.599 51.2294 763.623 51.2051C763.648 51.1809 763.672 51.1565 763.696 51.132C763.721 51.1076 763.745 51.0831 763.77 51.0585C763.795 51.0339 763.819 51.0092 763.844 50.9845C763.869 50.9597 763.894 50.9349 763.918 50.91C763.943 50.8851 763.968 50.8601 763.993 50.8351C764.018 50.81 764.044 50.7849 764.069 50.7597C764.094 50.7345 764.119 50.7093 764.145 50.6839C764.17 50.6586 764.195 50.6332 764.221 50.6077C764.246 50.5822 764.272 50.5566 764.297 50.531C764.323 50.5053 764.349 50.4796 764.375 50.4538C764.4 50.428 764.426 50.4022 764.452 50.3762C764.478 50.3503 764.504 50.3243 764.53 50.2982C764.556 50.2721 764.582 50.246 764.609 50.2198C764.635 50.1935 764.661 50.1672 764.688 50.1409C764.714 50.1145 764.74 50.088 764.767 50.0615C764.793 50.035 764.82 50.0084 764.847 49.9818C764.873 49.9551 764.9 49.9284 764.927 49.9015C764.954 49.8747 764.981 49.8479 765.008 49.8209C765.034 49.794 765.061 49.7669 765.089 49.7398C765.116 49.7127 765.143 49.6856 765.17 49.6583C765.197 49.6311 765.225 49.6038 765.252 49.5764C765.279 49.549 765.307 49.5216 765.334 49.494C765.362 49.4665 765.39 49.4389 765.417 49.4112C765.445 49.3836 765.473 49.3558 765.5 49.328C765.528 49.3002 765.556 49.2723 765.584 49.2444C765.612 49.2164 765.64 49.1884 765.668 49.1603C765.696 49.1322 765.724 49.1041 765.753 49.0758C765.781 49.0476 765.809 49.0193 765.837 48.9909C765.866 48.9626 765.894 48.9341 765.923 48.9056C765.951 48.8771 765.98 48.8485 766.009 48.8199C766.037 48.7912 766.066 48.7625 766.095 48.7337C766.124 48.7049 766.152 48.676 766.181 48.6471C766.21 48.6182 766.239 48.5892 766.268 48.5601C766.297 48.5311 766.327 48.5019 766.356 48.4727C766.385 48.4435 766.414 48.4142 766.444 48.3849C766.473 48.3556 766.502 48.3261 766.532 48.2967C766.561 48.2672 766.591 48.2376 766.62 48.208C766.65 48.1784 766.68 48.1487 766.709 48.119C766.739 48.0892 766.769 48.0594 766.799 48.0295C766.829 47.9996 766.859 47.9697 766.889 47.9396C766.919 47.9096 766.949 47.8795 766.979 47.8494C767.009 47.8192 767.039 47.789 767.07 47.7587C767.1 47.7284 767.13 47.698 767.161 47.6676C767.191 47.6372 767.222 47.6067 767.252 47.5761C767.283 47.5456 767.313 47.5149 767.344 47.4842C767.375 47.4535 767.406 47.4228 767.436 47.392C767.467 47.3611 767.498 47.3302 767.529 47.2993C767.56 47.2683 767.591 47.2373 767.622 47.2062C767.653 47.1751 767.684 47.1439 767.716 47.1127C767.747 47.0815 767.778 47.0502 767.81 47.0189C767.841 46.9875 767.872 46.9561 767.904 46.9246C767.935 46.8931 767.967 46.8616 767.998 46.8299C768.03 46.7983 768.062 46.7666 768.094 46.7349C768.125 46.7031 768.157 46.6713 768.189 46.6395C768.221 46.6076 768.253 46.5756 768.285 46.5436C768.317 46.5116 768.349 46.4796 768.381 46.4474C768.413 46.4153 768.445 46.3831 768.478 46.3508C768.51 46.3186 768.542 46.2862 768.575 46.2538C768.607 46.2214 768.639 46.189 768.672 46.1565C768.704 46.1239 768.737 46.0914 768.77 46.0587C768.802 46.0261 768.835 45.9934 768.868 45.9606C768.901 45.9278 768.933 45.895 768.966 45.8621C768.999 45.8292 769.032 45.7962 769.065 45.7632C769.098 45.7302 769.131 45.6971 769.165 45.6639C769.198 45.6308 769.231 45.5976 769.264 45.5643C769.297 45.531 769.331 45.4977 769.364 45.4643C769.398 45.4309 769.431 45.3974 769.465 45.3639C769.498 45.3303 769.532 45.2967 769.565 45.2631C769.599 45.2294 769.633 45.1957 769.666 45.162C769.7 45.1282 769.734 45.0943 769.768 45.0604C769.802 45.0265 769.836 44.9926 769.87 44.9586C769.904 44.9245 769.938 44.8905 769.972 44.8563C770.006 44.8222 770.04 44.788 770.075 44.7537C770.109 44.7194 770.143 44.6851 770.178 44.6507C770.212 44.6163 770.247 44.5819 770.281 44.5474C770.316 44.5129 770.35 44.4783 770.385 44.4437C770.419 44.409 770.454 44.3744 770.489 44.3396C770.524 44.3049 770.558 44.27 770.593 44.2352C770.628 44.2003 770.663 44.1654 770.698 44.1304C770.733 44.0954 770.768 44.0603 770.803 44.0252C770.838 43.9901 770.873 43.955 770.909 43.9197C770.944 43.8845 770.979 43.8492 771.015 43.8139C771.05 43.7785 771.085 43.7431 771.121 43.7077C771.156 43.6722 771.192 43.6367 771.227 43.6011C771.263 43.5655 771.299 43.5299 771.334 43.4942C771.37 43.4585 771.406 43.4227 771.442 43.3869C771.477 43.3511 771.513 43.3152 771.549 43.2793C771.585 43.2433 771.621 43.2073 771.657 43.1713C771.693 43.1352 771.729 43.0991 771.765 43.063C771.802 43.0268 771.838 42.9906 771.874 42.9543C771.91 42.918 771.947 42.8817 771.983 42.8453C772.02 42.8089 772.056 42.7724 772.092 42.7359C772.129 42.6994 772.166 42.6629 772.202 42.6262C772.239 42.5896 772.275 42.5529 772.312 42.5162C772.349 42.4795 772.386 42.4427 772.423 42.4058C772.459 42.369 772.496 42.3321 772.533 42.2951C772.57 42.2581 772.607 42.2211 772.644 42.184C772.681 42.147 772.719 42.1098 772.756 42.0726C772.793 42.0355 772.83 41.9982 772.868 41.9609C772.905 41.9236 772.942 41.8863 772.98 41.8489C773.017 41.8114 773.054 41.774 773.092 41.7365C773.129 41.6989 773.167 41.6614 773.205 41.6237C773.242 41.5861 773.28 41.5484 773.318 41.5107C773.356 41.4729 773.393 41.4351 773.431 41.3973C773.469 41.3594 773.507 41.3215 773.545 41.2836C773.583 41.2456 773.621 41.2076 773.659 41.1695C773.697 41.1314 773.735 41.0933 773.773 41.0551C773.811 41.017 773.85 40.9787 773.888 40.9404C773.926 40.9022 773.965 40.8638 774.003 40.8254C774.041 40.787 774.08 40.7486 774.118 40.7101C774.157 40.6716 774.195 40.633 774.234 40.5944C774.273 40.5558 774.311 40.5172 774.35 40.4784C774.389 40.4397 774.427 40.401 774.466 40.3621C774.505 40.3233 774.544 40.2844 774.583 40.2455C774.622 40.2066 774.661 40.1676 774.7 40.1286C774.739 40.0896 774.778 40.0505 774.817 40.0113C774.856 39.9722 774.895 39.933 774.935 39.8938C774.974 39.8545 775.013 39.8152 775.053 39.7759C775.092 39.7366 775.131 39.6972 775.171 39.6577C775.21 39.6183 775.25 39.5788 775.289 39.5392C775.329 39.4997 775.368 39.4601 775.408 39.4204C775.448 39.3808 775.487 39.341 775.527 39.3013C775.567 39.2615 775.607 39.2217 775.647 39.1819C775.686 39.142 775.726 39.1021 775.766 39.0621C775.806 39.0222 775.846 38.9822 775.886 38.9421C775.926 38.9021 775.966 38.8619 776.007 38.8218C776.047 38.7816 776.087 38.7414 776.127 38.7011C776.168 38.6609 776.208 38.6206 776.248 38.5802C776.289 38.5398 776.329 38.4994 776.369 38.459C776.41 38.4185 776.45 38.378 776.491 38.3374C776.532 38.2969 776.572 38.2563 776.613 38.2156C776.653 38.175 776.694 38.1342 776.735 38.0935C776.776 38.0527 776.817 38.0119 776.857 37.9711C776.898 37.9302 776.939 37.8893 776.98 37.8484C777.021 37.8074 777.062 37.7664 777.103 37.7253C777.144 37.6843 777.185 37.6432 777.226 37.602C777.268 37.5609 777.309 37.5197 777.35 37.4785C777.391 37.4372 777.432 37.3959 777.474 37.3546C777.515 37.3132 777.557 37.2719 777.598 37.2304C777.639 37.189 777.681 37.1475 777.722 37.106C777.764 37.0644 777.806 37.0229 777.847 36.9812C777.889 36.9396 777.93 36.8979 777.972 36.8562C778.014 36.8145 778.056 36.7727 778.097 36.7309C778.139 36.6891 778.181 36.6473 778.223 36.6053C778.265 36.5634 778.307 36.5215 778.349 36.4795C778.391 36.4375 778.433 36.3954 778.475 36.3533C778.517 36.3113 778.559 36.2691 778.601 36.2269C778.644 36.1847 778.686 36.1425 778.728 36.1002C778.77 36.058 778.813 36.0156 778.855 35.9733C778.898 35.9309 778.94 35.8885 778.982 35.846C779.025 35.8036 779.067 35.7611 779.11 35.7185C779.152 35.676 779.195 35.6334 779.238 35.5907C779.28 35.5481 779.323 35.5054 779.366 35.4627C779.408 35.4199 779.451 35.3772 779.494 35.3343C779.537 35.2915 779.58 35.2487 779.623 35.2057C779.666 35.1628 779.709 35.1199 779.752 35.0769C779.795 35.0339 779.838 34.9908 779.881 34.9478C779.924 34.9047 779.967 34.8615 780.01 34.8184C780.053 34.7752 780.096 34.732 780.14 34.6887C780.183 34.6455 780.226 34.6022 780.27 34.5588C780.313 34.5155 780.356 34.4721 780.4 34.4286C780.443 34.3852 780.487 34.3417 780.53 34.2982C780.574 34.2547 780.617 34.2111 780.661 34.1675C780.705 34.1239 780.748 34.0802 780.792 34.0365C780.836 33.9929 780.879 33.9491 780.923 33.9053C780.967 33.8616 781.011 33.8177 781.055 33.7739C781.098 33.73 781.142 33.6861 781.186 33.6422C781.23 33.5982 781.274 33.5542 781.318 33.5102C781.362 33.4662 781.406 33.4221 781.45 33.378C781.495 33.3339 781.539 33.2897 781.583 33.2455C781.627 33.2013 781.671 33.1571 781.716 33.1128C781.76 33.0685 781.804 33.0242 781.849 32.9798C781.893 32.9355 781.937 32.8911 781.982 32.8466C782.026 32.8022 782.071 32.7577 782.115 32.7132C782.16 32.6686 782.204 32.6241 782.249 32.5795C782.294 32.5348 782.338 32.4902 782.383 32.4455C782.428 32.4008 782.472 32.3561 782.517 32.3113C782.562 32.2666 782.607 32.2218 782.652 32.1769C782.696 32.1321 782.741 32.0872 782.786 32.0422C782.831 31.9973 782.876 31.9523 782.921 31.9073C782.966 31.8623 783.011 31.8173 783.056 31.7722C783.101 31.7271 783.146 31.682 783.192 31.6368C783.237 31.5917 783.282 31.5465 783.327 31.5012C783.372 31.456 783.418 31.4107 783.463 31.3654C783.508 31.3201 783.554 31.2747 783.599 31.2293C783.645 31.1839 783.69 31.1385 783.735 31.093C783.781 31.0475 783.826 31.002 783.872 30.9565C783.917 30.9109 783.963 30.8653 784.009 30.8197C784.054 30.7741 784.1 30.7284 784.146 30.6827C784.191 30.637 784.237 30.5913 784.283 30.5455C784.329 30.4997 784.374 30.4539 784.42 30.4081C784.466 30.3622 784.512 30.3163 784.558 30.2704C784.604 30.2245 784.65 30.1785 784.696 30.1325C784.742 30.0865 784.788 30.0405 784.834 29.9944C784.88 29.9484 784.926 29.9023 784.972 29.8561C785.018 29.81 785.065 29.7638 785.111 29.7176C785.157 29.6714 785.203 29.6251 785.25 29.5788C785.296 29.5325 785.342 29.4862 785.389 29.4398C785.435 29.3935 785.481 29.3471 785.528 29.3007C785.574 29.2542 785.621 29.2078 785.667 29.1613C785.714 29.1148 785.76 29.0682 785.807 29.0216C785.853 28.9751 785.9 28.9285 785.947 28.8818C785.993 28.8352 786.04 28.7885 786.087 28.7418C786.133 28.6951 786.18 28.6483 786.227 28.6015C786.274 28.5547 786.32 28.5079 786.367 28.4611C786.414 28.4142 786.461 28.3673 786.508 28.3204C786.555 28.2735 786.602 28.2265 786.649 28.1796C786.696 28.1326 786.743 28.0855 786.79 28.0385C786.837 27.9914 786.884 27.9443 786.931 27.8972C786.978 27.8501 787.025 27.8029 787.073 27.7557C787.12 27.7085 787.167 27.6613 787.214 27.6141C787.262 27.5668 787.309 27.5195 787.356 27.4722C787.404 27.4249 787.451 27.3775 787.498 27.3301C787.546 27.2827 787.593 27.2353 787.641 27.1879C787.688 27.1404 787.736 27.0929 787.783 27.0454C787.831 26.9979 787.878 26.9503 787.926 26.9027C787.973 26.8552 788.021 26.8075 788.069 26.7599C788.116 26.7122 788.164 26.6646 788.212 26.6168C788.259 26.5691 788.307 26.5214 788.355 26.4736C788.403 26.4258 788.45 26.378 788.498 26.3302C788.546 26.2824 788.594 26.2345 788.642 26.1866C788.69 26.1387 788.738 26.0907 788.786 26.0428C788.834 25.9948 788.882 25.9468 788.93 25.8988C788.978 25.8508 789.026 25.8027 789.074 25.7546C789.122 25.7065 789.17 25.6584 789.218 25.6103C789.266 25.5621 789.314 25.514 789.363 25.4657C789.411 25.4175 789.459 25.3693 789.507 25.321C789.556 25.2728 789.604 25.2245 789.652 25.1761C789.701 25.1278 789.749 25.0795 789.797 25.0311C789.846 24.9827 789.894 24.9343 789.943 24.8858C789.991 24.8374 790.04 24.7889 790.088 24.7404C790.137 24.6919 790.185 24.6433 790.234 24.5948C790.282 24.5462 790.331 24.4976 790.379 24.449C790.428 24.4004 790.477 24.3517 790.525 24.3031C790.574 24.2544 790.623 24.2057 790.671 24.1569C790.72 24.1082 790.769 24.0594 790.818 24.0107C790.867 23.9619 790.915 23.913 790.964 23.8642C791.013 23.8153 791.062 23.7665 791.111 23.7176C791.16 23.6687 791.209 23.6197 791.258 23.5708C791.307 23.5218 791.356 23.4728 791.405 23.4238C791.454 23.3748 791.503 23.3258 791.552 23.2767C791.601 23.2276 791.65 23.1785 791.699 23.1294C791.748 23.0803 791.797 23.0311 791.846 22.982C791.896 22.9328 791.945 22.8836 791.994 22.8344C792.043 22.7851 792.093 22.7359 792.142 22.6866C792.191 22.6373 792.24 22.588 792.29 22.5387C792.339 22.4893 792.388 22.44 792.438 22.3906C792.487 22.3412 792.537 22.2918 792.586 22.2423C792.636 22.1929 792.685 22.1434 792.734 22.0939C792.784 22.0445 792.833 21.9949 792.883 21.9454C792.933 21.8959 792.982 21.8463 793.032 21.7967C793.081 21.7471 793.131 21.6975 793.181 21.6479C793.23 21.5982 793.28 21.5485 793.33 21.4989C793.379 21.4492 793.429 21.3994 793.479 21.3497C793.528 21.3 793.578 21.2502 793.628 21.2004C793.678 21.1506 793.728 21.1008 793.777 21.051C793.827 21.0011 793.877 20.9513 793.927 20.9014C793.977 20.8515 794.027 20.8016 794.077 20.7517C794.127 20.7017 794.177 20.6518 794.227 20.6018C794.277 20.5518 794.327 20.5018 794.377 20.4518C794.427 20.4017 794.477 20.3517 794.527 20.3016C794.577 20.2516 794.627 20.2015 794.677 20.1513C794.727 20.1012 794.777 20.0511 794.828 20.0009C794.878 19.9507 794.928 19.9006 794.978 19.8503C795.028 19.8001 795.079 19.7499 795.129 19.6996C795.179 19.6494 795.229 19.5991 795.28 19.5488C795.33 19.4985 795.38 19.4482 795.431 19.3978C795.481 19.3475 795.531 19.2971 795.582 19.2467C795.632 19.1964 795.682 19.1459 795.733 19.0955C795.783 19.0451 795.834 18.9946 795.884 18.9442C795.935 18.8937 795.985 18.8432 796.036 18.7927C796.086 18.7422 796.137 18.6916 796.187 18.6411C796.238 18.5905 796.289 18.5399 796.339 18.4893C796.39 18.4387 796.44 18.3881 796.491 18.3375C796.542 18.2868 796.592 18.2362 796.643 18.1855C796.694 18.1348 796.744 18.0841 796.795 18.0334C796.846 17.9826 796.897 17.9319 796.947 17.8811C796.998 17.8304 797.049 17.7796 797.1 17.7288C797.15 17.678 797.201 17.6272 797.252 17.5763C797.303 17.5255 797.354 17.4746 797.405 17.4237C797.456 17.3729 797.506 17.322 797.557 17.271C797.608 17.2201 797.659 17.1692 797.71 17.1182C797.761 17.0673 797.812 17.0163 797.863 16.9653C797.914 16.9143 797.965 16.8633 798.016 16.8123C798.067 16.7612 798.118 16.7102 798.169 16.6591C798.22 16.608 798.271 16.5569 798.323 16.5058C798.374 16.4547 798.425 16.4036 798.476 16.3525C798.527 16.3013 798.578 16.2502 798.629 16.199C798.681 16.1478 798.732 16.0966 798.783 16.0454C798.834 15.9942 798.885 15.943 798.937 15.8917C798.988 15.8405 799.039 15.7892 799.09 15.7379C799.142 15.6867 799.193 15.6354 799.244 15.584C799.296 15.5327 799.347 15.4814 799.398 15.43C799.45 15.3787 799.501 15.3273 799.552 15.276C799.604 15.2246 799.655 15.1732 799.707 15.1218C799.758 15.0703 799.81 15.0189 799.861 14.9675C799.912 14.916 799.964 14.8646 800.015 14.8131C800.067 14.7616 800.118 14.7101 800.17 14.6586C800.221 14.6071 800.273 14.5556 800.324 14.504C800.376 14.4525 800.428 14.4009 800.479 14.3493C800.531 14.2978 800.582 14.2462 800.634 14.1946C800.685 14.143 800.737 14.0914 800.789 14.0397C800.84 13.9881 800.892 13.9364 800.944 13.8848C800.995 13.8331 801.047 13.7814 801.099 13.7298C801.15 13.6781 801.202 13.6264 801.254 13.5746C801.306 13.5229 801.357 13.4712 801.409 13.4194C801.461 13.3677 801.513 13.3159 801.564 13.2641C801.616 13.2124 801.668 13.1606 801.72 13.1088C801.771 13.057 801.823 13.0052 801.875 12.9533C801.927 12.9015 801.979 12.8496 802.031 12.7978C802.082 12.7459 802.134 12.6941 802.186 12.6422C802.238 12.5903 802.29 12.5384 802.342 12.4865C802.394 12.4346 802.446 12.3826 802.498 12.3307C802.55 12.2788 802.602 12.2268 802.654 12.1749C802.706 12.1229 802.757 12.0709 802.809 12.0189C802.861 11.967 802.913 11.915 802.965 11.8629C803.017 11.8109 803.07 11.7589 803.122 11.7069C803.174 11.6548 803.226 11.6028 803.278 11.5507C803.33 11.4987 803.382 11.4466 803.434 11.3945C803.486 11.3425 803.538 11.2904 803.59 11.2383C803.642 11.1862 803.694 11.134 803.747 11.0819C803.799 11.0298 803.851 10.9777 803.903 10.9255C803.955 10.8734 804.007 10.8212 804.059 10.769C804.112 10.7169 804.164 10.6647 804.216 10.6125C804.268 10.5603 804.32 10.5081 804.373 10.4559C804.425 10.4037 804.477 10.3515 804.529 10.2992C804.581 10.247 804.634 10.1948 804.686 10.1425C804.738 10.0902 804.79 10.038 804.843 9.98572C804.895 9.93345 804.947 9.88116 805 9.82887C805.052 9.77658 805.104 9.72429 805.156 9.67198C805.209 9.61967 805.261 9.56735 805.313 9.51502C805.366 9.4627 805.418 9.41036 805.47 9.35801C805.523 9.30567 805.575 9.25332 805.627 9.20095C805.68 9.14859 805.732 9.09622 805.785 9.04384C805.837 8.99146 805.889 8.93907 805.942 8.88668C805.994 8.83428 806.047 8.78188 806.099 8.72946C806.151 8.67705 806.204 8.62463 806.256 8.5722C806.309 8.51977 806.361 8.46734 806.414 8.41489C806.466 8.36245 806.518 8.31 806.571 8.25754C806.623 8.20508 806.676 8.15261 806.728 8.10014C806.781 8.04767 806.833 7.99519 806.886 7.9427C806.938 7.89021 806.991 7.83772 807.043 7.78521C807.096 7.73271 807.148 7.6802 807.201 7.62769C807.253 7.57517 807.306 7.52265 807.358 7.47012C807.411 7.41759 807.463 7.36506 807.516 7.31252C807.568 7.25998 807.621 7.20743 807.674 7.15488C807.726 7.10232 807.779 7.04976 807.831 6.9972C807.884 6.94463 807.936 6.89206 807.989 6.83949C808.042 6.78691 808.094 6.73433 808.147 6.68174C808.199 6.62915 808.252 6.57656 808.304 6.52396C808.357 6.47136 808.41 6.41876 808.462 6.36615C808.515 6.31354 808.568 6.26093 808.62 6.20831C808.673 6.15569 808.725 6.10307 808.778 6.05044C808.831 5.99781 808.883 5.94518 808.936 5.89254C808.989 5.8399 809.041 5.78726 809.094 5.73462C809.146 5.68197 809.199 5.62932 809.252 5.57667C809.304 5.52401 809.357 5.47135 809.41 5.41869C809.462 5.36603 809.515 5.31337 809.568 5.2607C809.62 5.20803 809.673 5.15535 809.726 5.10268C809.778 5.05 809.831 4.99732 809.884 4.94464C809.936 4.89196 809.989 4.83927 810.042 4.78658C810.095 4.73389 810.147 4.6812 810.2 4.62851C810.253 4.57581 810.305 4.52311 810.358 4.47041C810.411 4.41771 810.463 4.36501 810.516 4.3123C810.569 4.2596 810.622 4.20689 810.674 4.15418C810.727 4.10147 810.78 4.04876 810.832 3.99604C810.885 3.94333 810.938 3.89061 810.991 3.8379C811.043 3.78518 811.096 3.73246 811.149 3.67974C811.201 3.62701 811.254 3.57429 811.307 3.52157C811.36 3.46884 811.412 3.41612 811.465 3.36339C811.518 3.31066 811.57 3.25793 811.623 3.2052C811.676 3.15247 811.729 3.09974 811.781 3.04701C811.834 2.99428 811.887 2.94155 811.94 2.88882C811.992 2.83608 812.045 2.78335 812.098 2.73062C812.151 2.67788 812.203 2.62515 812.256 2.57242C812.309 2.51968 812.361 2.46695 812.414 2.41421L809.586 -0.414214Z" fill="#F4F4F4"/>
<path d="M812.799 146.545C801.512 157.831 783.214 157.831 771.928 146.545V146.545C760.641 135.259 760.641 116.96 771.928 105.674L825.601 52L866.472 92.8711L812.799 146.545Z" fill="#F4F4F4"/>
<path d="M717.498 135.039C714.327 138.21 709.186 138.21 706.015 135.039V135.039C702.844 131.868 702.844 126.727 706.015 123.556L737.566 92.0044C740.738 88.8333 745.879 88.8333 749.05 92.0044V92.0044C752.221 95.1754 752.221 100.317 749.05 103.488L717.498 135.039Z" fill="#F4F4F4"/>
</svg>
